<svg width="65" height="65" viewBox="0 0 65 65" fill="none" xmlns="http://www.w3.org/2000/svg">
<path d="M64.9995 12.0941C65.0332 11.0008 63.3174 11.0008 63.2837 12.0941C63.0987 19.1418 59.7007 22.5731 52.9048 23.1786C46.1594 23.7673 34.5862 25.3316 33.3582 16.3665C33.3414 16.1983 33.2741 16.0805 33.19 15.9796C33.3246 14.348 33.2573 12.666 33.2741 11.1354C33.2741 10.0421 31.5751 10.0253 31.5583 11.1354C31.5415 14.0789 31.9788 18.2503 29.7584 20.5042C27.1174 23.1786 21.8859 23.7001 18.3197 23.801C15.0564 23.9019 10.6491 24.0869 7.739 22.6067C3.9878 20.6892 1.90193 16.2151 1.71689 12.2119C1.66642 11.1186 -0.049373 11.1017 0.0010916 12.2119C0.20295 16.2319 1.85146 19.9996 4.89616 22.6236C6.1746 26.6099 6.56149 30.7309 7.52032 34.7846C8.37822 38.4177 9.72394 41.7986 10.1277 45.5326C10.4641 48.678 10.7164 51.9916 10.4641 55.1538C10.2118 58.2151 9.00061 61.1249 8.63054 64.1862C8.49597 65.2795 10.2118 65.2627 10.3463 64.1862C10.7332 60.9904 12.0117 57.9964 12.1967 54.7669C12.3817 51.3524 12.1462 47.837 11.7257 44.4562C11.3556 41.479 10.3463 38.7205 9.57255 35.8274C8.52961 31.9756 8.10907 28.006 7.1166 24.1542C10.4473 25.8026 14.7872 25.6344 18.3366 25.5335C22.4578 25.3989 27.908 24.7765 30.9864 21.7321C31.6592 21.0593 32.1302 20.3024 32.4835 19.4614C35.5955 26.7109 46.5968 25.5503 53.5609 24.8606C55.3608 24.6756 56.9084 24.2888 58.2709 23.7169C57.1102 26.7109 56.7738 29.8562 56.1514 33.0857C55.4617 36.7189 53.9814 40.167 53.4431 43.8338C52.9385 47.2819 52.7534 50.8646 52.8712 54.3296C53.0058 57.7104 54.2842 60.8558 54.6711 64.1862C54.8057 65.2627 56.5046 65.2795 56.3869 64.1862C56.0505 61.2595 54.9402 58.4842 54.6374 55.5575C54.301 52.2944 54.6038 48.7958 54.9402 45.5495C55.3103 42.0845 56.5046 38.956 57.3289 35.5919C58.4391 31.1009 58.4223 26.509 60.7437 22.3713C60.7773 22.304 60.7941 22.2367 60.8109 22.1694C63.4856 20.0164 64.8818 16.6524 64.9995 12.0941Z" fill="#2B3541"/>
<path d="M47.135 32.1774C45.6378 34.8014 34.5188 34.3136 33.2067 31.7569C33.1563 31.656 33.089 31.6055 33.0385 31.5383C33.3918 29.9403 33.1899 28.006 33.0722 26.0717C33.0049 24.9784 31.3059 24.9784 31.3564 26.0717C31.575 29.789 32.3657 33.2035 27.4033 33.6408C24.4427 33.9099 19.7159 34.6836 17.4449 32.3961C16.6712 31.6055 15.46 32.8166 16.2338 33.6071C19.2112 36.618 25.166 35.9115 28.9509 35.1714C30.5826 34.8518 31.6087 34.2127 32.2479 33.338C34.031 35.3901 37.7822 35.3228 40.2213 35.3733C42.8287 35.4237 47.0845 35.7097 48.5984 33.0353C49.1704 32.0765 47.6901 31.2187 47.135 32.1774Z" fill="#2B3541"/>
<path d="M31.1042 44.0021C30.465 45.045 28.7828 45.4487 27.6894 45.5159C24.8466 45.701 20.2038 46.1046 20.0356 42.1687C19.9852 41.0754 18.2862 41.0586 18.3198 42.1687C18.4039 43.9853 18.7067 45.6505 20.4898 46.4747C22.7102 47.5175 25.3344 47.3662 27.6894 47.2148C29.4052 47.1139 31.3565 47.1643 32.349 45.4991C32.349 45.4823 32.3658 45.4655 32.3658 45.4655C32.6349 45.8523 33.005 46.1719 33.5265 46.441C35.4778 47.4166 38.1188 47.2821 40.2383 47.3325C43.6867 47.4334 46.1258 45.9701 46.6473 42.3538C46.7987 41.2773 45.1502 40.8063 44.9988 41.8996C44.5782 44.8263 42.8456 45.701 40.2383 45.6169C37.4795 45.5496 34.1321 45.9869 33.0723 42.8079C33.0723 42.8079 33.0723 42.8079 33.0723 42.7911C33.1564 41.6473 33.106 40.4867 33.0387 39.528C32.9714 38.4347 31.2724 38.4178 31.3229 39.528C31.3733 40.4026 31.407 41.2436 31.3229 42.1183C31.306 42.6397 31.3565 43.5984 31.1042 44.0021Z" fill="#2B3541"/>
<path d="M55.6804 20.5885C56.7738 20.5885 56.7906 18.8728 55.6804 18.8728C54.587 18.8728 54.587 20.5885 55.6804 20.5885Z" fill="#2B3541"/>
<path d="M9.45481 20.5885C10.5482 20.5885 10.565 18.8728 9.45481 18.8728C8.36142 18.8728 8.36142 20.5885 9.45481 20.5885Z" fill="#2B3541"/>
<path d="M45.0325 53.657C45.0157 55.3558 44.9988 56.4323 43.2158 56.9369C42.2906 57.1892 41.3822 57.1556 40.4402 57.1219C37.8833 57.021 34.0144 57.6433 33.4256 54.2961C33.5434 53.0514 33.392 51.7058 33.3583 50.663C33.3247 49.5697 31.6089 49.5528 31.6425 50.663C31.693 52.16 31.878 53.5224 31.222 54.9017C30.6164 56.1968 29.523 56.3818 28.1773 56.6173C26.7306 56.8528 25.1494 56.8528 23.6859 56.7855C21.2468 56.6678 20.8263 55.5408 20.473 53.4383C20.288 52.3618 18.6395 52.816 18.8245 53.8924C19.0768 55.4904 19.346 57.2228 20.9104 57.9966C22.8785 58.989 26.0578 58.6357 28.1437 58.333C29.523 58.1311 31.4911 57.7947 32.5004 56.6678C34.1489 58.9721 37.8329 58.7198 40.6589 58.8376C42.0382 58.888 43.9223 58.8208 45.167 58.1311C46.7819 57.2397 46.6978 55.2717 46.7146 53.6401C46.7651 52.5468 45.0493 52.5468 45.0325 53.657Z" fill="#2B3541"/>
<path d="M16.0827 1.98521C20.4731 1.98521 24.2579 1.48061 27.8241 4.40732C28.6652 5.09695 29.8932 3.90271 29.0353 3.19627C25.0149 -0.0836695 21.1123 0.269554 16.0827 0.286374C14.9724 0.286374 14.9724 1.98521 16.0827 1.98521Z" fill="#2B3541"/>
<path d="M36.924 4.40738C39.851 1.262 44.9311 1.86753 48.901 1.71615C49.9944 1.68251 50.0112 -0.0331521 48.901 0.000488292C44.3928 0.16869 39.0604 -0.403196 35.7129 3.1795C34.9727 4.00369 36.1839 5.21475 36.924 4.40738Z" fill="#2B3541"/>
</svg>
