<svg width="67" height="106" viewBox="0 0 67 106" fill="none" xmlns="http://www.w3.org/2000/svg">
<path d="M60.6304 65.1346C62.5269 54.5505 64.2126 43.8764 64.3632 33.1123C64.4535 24.9268 63.8815 15.6919 58.3125 9.12556C53.9777 3.99839 47.6561 1.41981 41.2141 1.11998C31.4006 -1.75843 23.6943 1.14996 15.8073 7.11667C8.64285 12.5437 5.06062 19.3799 4.30805 28.285C3.28455 40.4283 4.88 53.0213 6.89689 65.0147C4.21774 65.1946 1.05694 65.7343 0.214064 67.9231C-0.237478 69.1224 0.0936542 72.1507 0.575299 73.2301C1.35797 74.9392 3.01363 74.8492 3.8565 76.1385C5.15092 78.1474 3.94681 83.9042 3.70599 85.9731C3.34476 89.0914 3.16414 92.1197 3.49527 95.238C3.91671 99.0459 4.39836 104.563 8.91378 105.642C22.3998 108.85 17.9747 89.6011 16.1686 83.0647C15.8073 81.7454 15.2354 80.4262 15.0246 79.0469C14.1818 74.0697 14.9042 75.5988 16.4094 72.7204C17.2523 71.1313 17.4329 70.2018 17.1619 68.2229C16.4997 63.7854 13.4894 64.8348 9.54594 64.8648C9.48573 64.8648 9.39542 64.8648 9.30511 64.8648C8.0408 57.3989 7.16781 49.903 6.77647 42.3472C6.41524 35.6009 5.9035 28.225 7.86018 21.6586C7.92038 21.4487 8.01069 21.2988 8.0709 21.0889C6.23463 28.195 6.77647 36.0807 9.78676 42.797C15.9879 56.5893 32.123 59.4078 45.2178 53.8309C51.4491 51.1923 57.289 47.4144 59.5166 40.7581C61.9549 33.4421 62.3162 23.6675 59.2156 16.5315C57.7405 13.1433 55.4527 10.145 52.7134 7.65637C55.3624 9.45537 57.59 11.7941 59.0049 14.7025C62.5871 22.1084 62.1958 30.8935 61.7141 38.8691C61.2024 47.6243 59.7574 56.2595 58.2222 64.8648V64.8947C54.941 64.5949 51.3888 64.475 50.3654 67.8631C49.9138 69.3023 49.6429 71.641 50.3051 73.0202C51.5093 75.4789 52.6231 74.3095 52.7134 77.3379C52.9542 83.8743 43.532 104.533 55.7839 105.672C67.6745 106.782 64.8448 90.1408 63.8213 82.7649C63.5203 80.666 62.7677 77.6377 64.0019 75.5988C64.4836 74.8193 65.5673 74.4595 66.0188 73.6799C66.8316 72.3906 67.0724 70.4117 66.9821 68.9425C66.8316 65.1946 63.8213 65.4344 60.6304 65.1346ZM14.5731 67.4134C16.3191 68.7926 14.0313 71.611 13.4292 72.7504C12.2251 75.0591 11.8639 75.0291 12.3154 77.9076C13.1282 83.0947 14.7838 87.982 15.4762 93.2591C15.8073 95.6877 16.9512 99.1058 15.3558 101.355C13.8205 103.543 10.9909 103.753 8.91378 102.614C4.81979 100.395 5.51216 92.0297 5.9035 87.892C6.23463 84.264 7.49895 79.6166 6.29483 76.0186C5.60247 73.9497 5.33154 74.9392 3.94681 73.3501C-0.237477 68.4628 5.66267 67.5033 9.54594 67.3234C10.7199 67.2934 13.6098 66.6338 14.5731 67.4134ZM35.7956 3.66857C38.2941 3.99839 40.7927 4.71799 43.231 5.94731C50.9072 9.81517 55.3022 15.9618 54.6399 24.7469C54.068 32.6925 50.3653 41.0279 42.1473 43.5765C35.2537 45.7053 24.2963 45.4355 20.0518 38.5993C16.5298 32.9024 16.8308 23.8474 19.0283 17.7908C21.6774 10.4748 28.0592 4.71799 35.7956 3.66857ZM57.6803 38.4793C54.1282 51.702 37.1502 55.6898 25.2897 53.1712C11.4123 50.2029 7.19791 33.2922 10.5393 21.0889C12.9777 12.2438 19.8712 5.88734 27.9689 3.99839C24.7178 5.67746 21.858 8.07614 19.7207 11.1644C11.7735 22.7081 13.0078 43.7864 29.2332 46.5449C36.488 47.7742 45.0371 46.7248 50.4256 41.2978C55.7839 35.9008 57.861 26.9957 56.9579 19.6198C56.8676 18.8102 56.6869 18.0007 56.4762 17.2511C59.2758 23.6375 59.637 31.2233 57.6803 38.4793ZM62.7677 73.5C60.9314 76.0486 60.7809 76.4384 61.0819 80.0364C61.4733 84.4439 65.5071 105.043 56.2655 103.304C47.4153 101.624 54.9109 83.0047 55.1818 77.3678C55.2721 75.299 55.0915 75.0291 54.369 73.53C53.6466 72.0608 50.9674 69.6621 53.0144 67.6532C53.9476 66.7237 58.5834 67.3834 59.8477 67.5033C64.8147 68.1329 65.4469 69.782 62.7677 73.5Z" fill="#2B3541"/>
</svg>
