<svg width="52" height="55" viewBox="0 0 52 55" fill="none" xmlns="http://www.w3.org/2000/svg">
<g clip-path="url(#clip0_173_7)">
<path d="M18.0308 22.3904L26.1024 30.5963L34.174 22.3904L36.6536 24.9167L26.1024 35.6667L15.5513 24.9167L18.0308 22.3904Z" fill="#2B3541"/>
<g filter="url(#filter0_d_173_7)">
<path fill-rule="evenodd" clip-rule="evenodd" d="M26 52C38.6489 52 49 41.5328 49 28.5C49 15.4672 38.6489 5 26 5C13.3511 5 3 15.4672 3 28.5C3 41.5328 13.3511 52 26 52ZM26 55C40.3594 55 52 43.1355 52 28.5C52 13.8645 40.3594 2 26 2C11.6406 2 0 13.8645 0 28.5C0 43.1355 11.6406 55 26 55Z" fill="#2B3541"/>
</g>
</g>
<defs>
<filter id="filter0_d_173_7" x="-24" y="-9" width="100" height="101" filterUnits="userSpaceOnUse" color-interpolation-filters="sRGB">
<feFlood flood-opacity="0" result="BackgroundImageFix"/>
<feColorMatrix in="SourceAlpha" type="matrix" values="0 0 0 0 0 0 0 0 0 0 0 0 0 0 0 0 0 0 127 0" result="hardAlpha"/>
<feOffset dy="13"/>
<feGaussianBlur stdDeviation="12"/>
<feColorMatrix type="matrix" values="0 0 0 0 0.984314 0 0 0 0 0.945098 0 0 0 0 0.219608 0 0 0 0.3 0"/>
<feBlend mode="normal" in2="BackgroundImageFix" result="effect1_dropShadow_173_7"/>
<feBlend mode="normal" in="SourceGraphic" in2="effect1_dropShadow_173_7" result="shape"/>
</filter>
<clipPath id="clip0_173_7">
<rect width="52" height="55" fill="white"/>
</clipPath>
</defs>
</svg>
