<svg width="97" height="30" viewBox="0 0 97 30" fill="none" xmlns="http://www.w3.org/2000/svg">
<path d="M65.5867 9.56728C65.1533 5.54333 62.6439 2.14533 59.0166 0.714596C55.3894 -0.71614 51.2603 0.0439386 48.3402 2.61479C46.5837 1.07228 44.3024 0.155715 41.9298 0.0439389C39.1011 -0.0901926 36.432 0.871082 34.4016 2.77128C32.5082 4.53734 31.3447 6.97407 31.1166 9.61199C31.0025 10.9309 31.1394 12.2499 31.5728 13.6583L13.8701 13.6136C13.391 13.6136 13.0032 13.8371 12.7751 14.2172C12.5242 14.6419 12.5242 15.1784 12.7751 15.6032C13.0032 15.9832 13.391 16.2068 13.8701 16.2068L33.4435 16.2515C33.8997 16.2515 34.2647 16.0503 34.4929 15.715C34.7438 15.3349 34.7894 14.7984 34.5841 14.3513C33.0557 10.8862 33.626 7.21997 36.067 4.8056C37.5726 3.33016 39.5573 2.57008 41.6333 2.63715C43.8233 2.70421 45.9221 3.7102 47.3821 5.36449C47.6102 5.61039 47.9524 5.76688 48.3402 5.76688C48.7281 5.76688 49.0702 5.63275 49.2984 5.36449C51.5568 2.81599 54.9559 1.92178 58.0129 3.08425C60.7048 4.11259 62.6439 6.68345 62.9632 9.63434C63.0545 10.4838 63.8301 10.9086 64.5373 10.8415C65.2217 10.7521 65.6551 10.2379 65.5867 9.56728Z" fill="#2A2A2A"/>
<path d="M9.39883 26.1549H6.25067C5.86285 26.1549 5.56628 25.8419 5.56628 25.4842V4.20199C5.56628 3.82195 5.88566 3.53133 6.25067 3.53133H9.42164C9.80946 3.53133 10.106 3.84431 10.106 4.20199V25.4842C10.0832 25.8419 9.78665 26.1549 9.39883 26.1549Z" fill="#2A2A2A"/>
<path d="M3.87817 23.4946H0.684384C0.319379 23.4946 0 23.2039 0 22.8239V6.79519C0 6.4375 0.296566 6.12453 0.684384 6.12453H3.87817C4.24318 6.12453 4.56256 6.41515 4.56256 6.79519V22.8239C4.56256 23.2039 4.26599 23.4946 3.87817 23.4946Z" fill="#2A2A2A"/>
<path d="M14.9196 28.4575H11.7714C11.3836 28.4575 11.0642 28.1445 11.0642 27.7645V1.87707C11.0642 1.49703 11.3836 1.18405 11.7714 1.18405H14.9196C15.3074 1.18405 15.6268 1.49703 15.6268 1.87707V27.7868C15.6268 28.1668 15.3074 28.4575 14.9196 28.4575Z" fill="#2A2A2A"/>
<path d="M82.9702 14.2172C82.7421 13.8372 82.3543 13.6136 81.8752 13.6136L63.3284 13.6583C62.9178 13.6583 62.3703 13.8819 62.1649 14.329C60.0662 18.8895 55.823 22.3098 52.7889 24.5006C51.4429 25.4619 50.097 26.3561 48.751 27.1609L48.6142 27.228C48.4088 27.3398 48.4088 27.3398 48.2263 27.2727C47.7016 27.0715 47.1769 26.7138 46.6751 26.3785C46.4697 26.2444 46.2644 26.1102 46.0819 25.9761C44.7132 25.1042 43.5269 24.2771 42.4319 23.4499C40.2647 21.7733 38.4853 20.0967 36.9796 18.2635C36.5462 17.727 35.8618 17.6599 35.3143 18.0847C34.7668 18.5094 34.5158 19.3589 35.0634 20.0296C36.5234 21.7957 38.2571 23.4723 40.3787 25.1266C41.6106 26.0879 42.9109 27.0268 44.2569 27.8986C44.9413 28.3458 45.6713 28.7929 46.4241 29.24L46.5838 29.3294C47.1085 29.6424 47.7016 30 48.4088 30C48.5457 30 48.7054 29.9777 48.8651 29.9553C49.4354 29.8212 49.9829 29.4635 50.4848 29.1505C50.6217 29.0611 50.7357 28.9717 50.8726 28.9046C51.6711 28.4128 52.4695 27.8763 53.268 27.3398C55.5036 25.7972 57.3971 24.2771 59.0852 22.6899C61.3893 20.499 63.0547 18.3753 64.1725 16.2515L81.8752 16.2068C82.3543 16.2068 82.7421 15.9833 82.9702 15.6032C83.2212 15.1785 83.2212 14.642 82.9702 14.2172Z" fill="#FBF138"/>
<path d="M87.6013 26.1549H90.7722C91.16 26.1549 91.4566 25.8419 91.4566 25.4842V4.20199C91.4566 3.82195 91.1372 3.53133 90.7722 3.53133H87.6013C87.2134 3.53133 86.9169 3.84431 86.9169 4.20199V25.4842C86.9169 25.8419 87.2134 26.1549 87.6013 26.1549Z" fill="#FBF138"/>
<path d="M93.122 23.4946H96.3158C96.6808 23.4946 97.0002 23.204 97.0002 22.824V6.79526C97.0002 6.43758 96.7036 6.1246 96.3158 6.1246H93.122C92.757 6.1246 92.4376 6.41522 92.4376 6.79526V22.824C92.4376 23.204 92.7342 23.4946 93.122 23.4946Z" fill="#FBF138"/>
<path d="M82.0806 28.4575H85.2287C85.6165 28.4575 85.9359 28.1445 85.9359 27.7645V1.87707C85.9359 1.49703 85.6165 1.18405 85.2287 1.18405H82.0806C81.6927 1.18405 81.3734 1.49703 81.3734 1.87707V27.7868C81.3734 28.1668 81.6927 28.4575 82.0806 28.4575Z" fill="#FBF138"/>
</svg>
